<svg version="1.1" xmlns="http://www.w3.org/2000/svg" xmlns:xlink="http://www.w3.org/1999/xlink" width="43.8364" height="42.99962" viewBox="0,0,43.8364,42.99962"><g transform="translate(-212.58324,-157.05559)"><g data-paper-data="{&quot;isPaintingLayer&quot;:true}" fill-rule="nonzero" stroke-linecap="butt" stroke-linejoin="miter" stroke-miterlimit="10" stroke-dasharray="" stroke-dashoffset="0" style="mix-blend-mode: normal"><path d="M245.55474,199.16473c-3.1792,1.92001 -12.51989,-8.00425 -12.51989,-8.00425c0,0 -10.88421,8.21122 -13.69447,5.77997c-2.81268,-2.43116 3.74282,-14.3851 3.74282,-14.3851c0,0 -11.17096,-7.81469 -9.72725,-11.23824c1.44371,-3.42616 14.83643,-0.88522 14.83643,-0.88522c0,0 3.97719,-13.03859 7.68003,-12.72687c3.70787,0.31414 5.43087,13.83901 5.43087,13.83901c0,0 13.62961,-0.24686 14.47243,3.37369c0.85027,3.61813 -11.48016,9.43798 -11.48016,9.43798c0,0 4.44594,12.88902 1.25919,14.80903z" fill="#ffff00" stroke="#000000" stroke-width="1.28786"/><path d="M239.5999,189.5119c-1.6536,0.9968 -6.5037,-4.1572 -6.5037,-4.1572c0,0 -5.6485,4.2628 -7.1064,3.0007c-1.4578,-1.2621 1.9421,-7.4644 1.9421,-7.4644c0,0 -5.7953,-4.0594 -5.0484,-5.834c0.7496,-1.7773 7.6988,-0.4585 7.6988,-0.4585c0,0 2.0658,-6.769 3.9898,-6.6041c1.9215,0.1622 2.8127,7.1811 2.8127,7.1811c0,0 7.0781,-0.1263 7.5159,1.7514c0.4431,1.8803 -5.955,4.899 -5.955,4.899c0,0 2.3027,6.6892 0.6542,7.686z" fill="#ffffff" stroke="none" stroke-width="2.57572"/></g></g></svg>